<svg xmlns="http://www.w3.org/2000/svg" width="18" height="18" viewBox="0 0 18 18">
    <g fill="none" fill-opacity=".25" fill-rule="evenodd">
        <g fill="#000" fill-rule="nonzero">
            <g>
                <path d="M321.258 25.5c.255 0 .456-.091.601-.273l1.368-1.368c.182-.145.273-.346.273-.601s-.091-.456-.273-.602l-5.852-5.906 5.852-5.906c.182-.146.273-.347.273-.602s-.091-.456-.273-.601l-1.368-1.368c-.145-.182-.346-.273-.601-.273s-.456.091-.602.273l-5.906 5.852-5.906-5.852c-.146-.182-.347-.273-.602-.273s-.456.091-.601.273l-1.368 1.368c-.182.145-.273.346-.273.601s.091.456.273.602l5.852 5.906-5.852 5.906c-.182.146-.273.347-.273.602s.091.456.273.601l1.368 1.368c.145.182.346.273.601.273s.456-.091.602-.273l5.906-5.852 5.906 5.852c.146.182.347.273.602.273z" transform="translate(-331 -71) translate(25 63)"/>
            </g>
        </g>
    </g>
</svg>
