<svg xmlns="http://www.w3.org/2000/svg" width="30" height="28" viewBox="0 0 30 28">
    <g fill="none" fill-rule="evenodd">
        <g fill="#9147FF" fill-rule="nonzero">
            <g>
                <path d="M21.795 29.781c.4.219.82.274 1.257.164.438-.11.775-.355 1.012-.738s.32-.793.246-1.23l-1.367-7.985 5.797-5.633c.328-.328.501-.71.52-1.148.018-.438-.11-.839-.383-1.203-.274-.365-.647-.584-1.121-.656l-7.985-1.149-3.554-7.219c-.22-.437-.538-.729-.957-.875-.42-.145-.839-.145-1.258 0-.42.146-.739.438-.957.875l-3.555 7.22-7.984 1.148c-.474.072-.848.291-1.121.656-.274.364-.402.765-.383 1.203.018.437.191.82.52 1.148l5.796 5.633-1.367 7.985c-.073.437.009.847.246 1.23s.574.629 1.012.738c.437.11.857.055 1.258-.164l7.164-3.718 7.164 3.718z" transform="translate(-25 -65) translate(25 63)"/>
            </g>
        </g>
    </g>
</svg>
