<svg xmlns="http://www.w3.org/2000/svg" width="28" height="28" viewBox="0 0 28 28">
    <g fill="none" fill-rule="evenodd">
        <g fill="#FFF" fill-rule="nonzero">
            <g>
                <path d="M199.156 43c.365 0 .675-.128.93-.383l1.531-1.531c.255-.255.383-.565.383-.93 0-.364-.128-.674-.383-.93l-5.469-5.468c-.255-.255-.565-.383-.93-.383h-.874c1.604-2.042 2.406-4.375 2.406-7 0-2.078-.51-3.983-1.531-5.715-1.021-1.732-2.397-3.108-4.13-4.129-1.73-1.02-3.636-1.531-5.714-1.531-2.078 0-3.983.51-5.715 1.531-1.732 1.021-3.108 2.397-4.129 4.13-1.02 1.73-1.531 3.636-1.531 5.714 0 2.078.51 3.983 1.531 5.715 1.021 1.732 2.397 3.108 4.13 4.129 1.73 1.02 3.636 1.531 5.714 1.531 2.625 0 4.958-.802 7-2.406v.875c0 .364.128.674.383.93l5.469 5.468c.255.255.565.383.93.383zm-13.781-9.625c-1.276 0-2.452-.31-3.527-.93-1.076-.62-1.924-1.467-2.543-2.543-.62-1.075-.93-2.251-.93-3.527 0-1.276.31-2.452.93-3.527.62-1.076 1.467-1.924 2.543-2.543 1.075-.62 2.251-.93 3.527-.93 1.276 0 2.452.31 3.527.93 1.076.62 1.924 1.467 2.543 2.543.62 1.075.93 2.251.93 3.527 0 1.276-.31 2.452-.93 3.527-.62 1.076-1.467 1.924-2.543 2.543-1.075.62-2.251.93-3.527.93z" transform="translate(-174 -737) translate(0 722)"/>
            </g>
        </g>
    </g>
</svg>
