<svg xmlns="http://www.w3.org/2000/svg" width="38" height="25" viewBox="0 0 38 25">
    <g fill="none" fill-rule="evenodd">
        <g fill="#FFF" fill-rule="nonzero">
            <g>
                <path d="M58.861 41c.322 0 .611-.129.869-.386l7.915-7.915 5.309 5.405c.257.193.547.29.868.29.322 0 .58-.097.773-.29l10.617-10.521 3.186 3.185c.45.45.997.676 1.64.676.644 0 1.191-.225 1.642-.676.45-.45.675-.997.675-1.64V18.316c0-.644-.225-1.19-.675-1.641-.45-.45-.998-.676-1.641-.676H79.228c-.644 0-1.19.225-1.641.676-.45.45-.676.997-.676 1.64 0 .644.225 1.191.676 1.642l3.185 3.185-6.95 7.046-5.405-5.405c-.193-.193-.45-.29-.772-.29s-.612.097-.869.29L55.29 36.174c-.193.193-.29.45-.29.772s.097.611.29.869l2.799 2.799c.193.257.45.386.772.386z" transform="translate(-55 -1011) translate(0 995)"/>
            </g>
        </g>
    </g>
</svg>
